# xmcd
#
# Track frame offsets:
#	150
#	8431
#	18812
#	27184
#	34348
#	42186
#	49498
#	56703
#	65950
#	71826
#
# Disc length: 1095 seconds
#
# Revision: 1
# Processed by: cddbd v1.4PL0 Copyright (c) Steve Scherf et al.
# Submitted via: audiograbber 1.81.02
#
DISCID=8804450a
DTITLE=George Shuffler - Cross Picking
DYEAR=1900
DGENRE=
TTITLE0=Will You Miss Me
TTITLE1=Uncloudy Day
TTITLE2=Lifes Railway To Heaven
TTITLE3=Bury Me Beneath The Willow
TTITLE4=The Promise
TTITLE5=Will The Circle Be Unbroken
TTITLE6=The Lonely Tombs
TTITLE7=Sunny Side Of The Mountain
TTITLE8=Little Rosewood Casket
TTITLE9=Will The Angels Have A Sweetheart
EXTD=
EXTT0=
EXTT1=
EXTT2=
EXTT3=
EXTT4=
EXTT5=
EXTT6=
EXTT7=
EXTT8=
EXTT9=
PLAYORDER=
